<svg
	xmlns="http://www.w3.org/2000/svg"
	xmlns:xlink="http://www.w3.org/1999/xlink"
	xmlns:serif="http://www.serif.com/"
	
	viewBox="0 0 109 107"
	version="1.1"
	xml:space="preserve"
	
	style="fill-rule:evenodd;clip-rule:evenodd;stroke-linejoin:round;stroke-miterlimit:2;">
	
    <g transform="matrix(1.6226,0,0,1.6226,-35.847692,-33.006799)">
        <path d="M30.056,40.36C34.9,35.973 44.2,29.225 48.297,26.096C53.599,22.047 58.131,21.926 63.289,25.892C70.408,31.366 77.597,36.779 84.346,42.687C86.292,44.391 87.708,47.663 87.844,50.294C88.282,58.76 88.015,67.262 88.006,75.75C87.997,83.523 87.006,83.363 79.79,83.589C79.725,74.313 79.257,61.862 72.056,48.394C70.352,45.207 68.107,43.811 64.509,43.919C58.856,44.089 53.188,44.105 47.536,43.915C43.684,43.785 41.621,45.54 39.728,48.79C33.603,59.307 32.639,71.421 32.745,83.508C25.031,83.419 24.005,82.564 23.994,75.812C23.983,68.156 24.274,60.483 23.875,52.851C23.529,46.214 26.511,43.571 30.056,40.36Z" style="fill:white;fill-rule:nonzero;" />
    </g>
        <g transform="matrix(1.6226,0,0,1.6226,-35.847692,-33.006799)">
        <path d="M60.961,61.773C53.511,61.773 46.552,61.773 38.278,61.773C41.874,49.249 42.47,48.726 55.5,48.726C68.53,48.726 68.432,48.634 72.315,61.773C68.599,61.773 65.026,61.773 60.961,61.773Z" style="fill:white;fill-rule:nonzero;" />
    </g>
        <g transform="matrix(1.6226,0,0,1.6226,-35.847692,-33.006799)">
        <path d="M47.157,77.224C55.29,77.224 62.942,77.224 70.939,77.224L70.939,82.781L40.594,82.781L40.594,77.224L47.157,77.224Z" style="fill:white;fill-rule:nonzero;" />
    </g>
        <g transform="matrix(1.6226,0,0,1.6226,-39.092892,-33.006799)">
        <circle cx="41.5" cy="71.5" r="3.5" style="fill:white;" />
    </g>
        <g transform="matrix(1.6226,0,0,1.6226,14.152542,-33.006799)">
        <circle cx="41.5" cy="71.5" r="3.5" style="fill:white;" />
    </g>
</svg>
